HIERARCHY
ROOT Hips
{
	OFFSET 0.00000 0.00000 0.00000
	CHANNELS 6 Xposition Yposition Zposition Zrotation Yrotation Xrotation 
	JOINT RightUpLegDummy
	{
		OFFSET 0 0 0
		CHANNELS 3 Zrotation Yrotation Xrotation
		JOINT RightUpLeg
		{
			OFFSET -3.52197 -3.41223 0.04002
			CHANNELS 3 Zrotation Yrotation Xrotation
			JOINT RightLeg
			{
				OFFSET 0.00006 -17.42390 1.60435
				CHANNELS 3 Zrotation Yrotation Xrotation
				JOINT RightFoot
				{
					OFFSET 0.06153 -16.50078 -1.63901
					CHANNELS 3 Zrotation Yrotation Xrotation
					JOINT RightToes
					{
						OFFSET 0.00298 -1.73825 3.34613
						CHANNELS 3 Zrotation Yrotation Xrotation
						End Site
						{
							OFFSET 0.00480 -0.05416 3.85043
						}
					}
				}
			}
		}
	}
	JOINT SpineDummy
	{
		OFFSET 0 0 0
		CHANNELS 3 Zrotation Yrotation Xrotation
		JOINT Spine
		{
			OFFSET 0.00000 4.68130 0.00000
			CHANNELS 3 Zrotation Yrotation Xrotation
			JOINT Spine1
			{
				OFFSET -0.00000 10.10138 0.05002
				CHANNELS 3 Zrotation Yrotation Xrotation
				JOINT HEadDummy
				{
					OFFSET 0 0 0
					CHANNELS 3 Zrotation Yrotation Xrotation
					JOINT Head
					{
						OFFSET -0.00000 3.43865 0.00438
						CHANNELS 3 Zrotation Yrotation Xrotation
						End Site
						{
							OFFSET -0.11417 5.02924 0.98962
						}
					}
				}
				JOINT LeftShoulder1Dummy
				{
					OFFSET 0 0 0
					CHANNELS 3 Zrotation Yrotation Xrotation
					JOINT LeftShoulder1
					{
						OFFSET 3.53937 -0.14262 -0.08662
						CHANNELS 3 Zrotation Yrotation Xrotation
						JOINT LeftArm
						{
							OFFSET 4.04833 -0.00133 0.12681
							CHANNELS 3 Zrotation Yrotation Xrotation
							JOINT LeftForeArm
							{
								OFFSET 10.33880 -0.01036 -0.55515
								CHANNELS 3 Zrotation Yrotation Xrotation
								JOINT LeftHand
								{
									OFFSET 8.69677 0.07543 0.40060
									CHANNELS 3 Zrotation Yrotation Xrotation
									End Site
									{
										OFFSET 5.28377 -0.21905 0.59205
									}
								}
							}
						}
					}
				}
				JOINT RightShoulderDummy
				{
					OFFSET 0 0 0
					CHANNELS 3 Zrotation Yrotation Xrotation
					JOINT RightShoulder
					{
						OFFSET -3.53937 -0.14262 -0.08660
						CHANNELS 3 Zrotation Yrotation Xrotation
						JOINT RightArm
						{
							OFFSET -4.04833 -0.00133 0.12683
							CHANNELS 3 Zrotation Yrotation Xrotation
							JOINT RightForeArm
							{
								OFFSET -10.37987 -0.01039 -0.55511
								CHANNELS 3 Zrotation Yrotation Xrotation
								JOINT RightHand
								{
									OFFSET -8.67398 0.07538 0.40058
									CHANNELS 3 Zrotation Yrotation Xrotation
									End Site
									{
										OFFSET -5.24810 -0.21916 0.59204
									}
								}
							}
						}
					}
				}
			}
		}
	}
	JOINT LeftUpLegDummy
	{
		OFFSET 0 0 0
		CHANNELS 3 Zrotation Yrotation Xrotation
		JOINT LeftUpLeg
		{
			OFFSET 3.52197 -3.41223 0.04002
			CHANNELS 3 Zrotation Yrotation Xrotation
			JOINT LeftLeg
			{
				OFFSET -0.00012 -17.42399 1.60337
				CHANNELS 3 Zrotation Yrotation Xrotation
				JOINT LeftFoot
				{
					OFFSET -0.09972 -16.50070 -1.63802
					CHANNELS 3 Zrotation Yrotation Xrotation
					JOINT LeftToes
					{
						OFFSET -0.01575 -1.73823 3.34611
						CHANNELS 3 Zrotation Yrotation Xrotation
						End Site
						{
							OFFSET 0.03150 -0.01868 3.85031
						}
					}
				}
			}
		}
	}
}
MOTION
Frames: 12
Frame Time: 0.033333
1.8809 40.2946 -73.7653 -1.8169 -4.1282 -1.0960 0.0000 0.0000 0.0000 4.0081 -0.1301 0.4848 -0.8546 -3.1298 3.5226 -3.6608 0.2498 -3.0768 0.0000 -0.0000 -0.0000 0.0000 0.0000 0.0000 -0.2682 -0.4399 0.6925 4.0016 -1.2745 2.0013 -0.0000 0.0000 -0.0000 2.1998 0.2715 -6.7781 -0.0000 0.0000 -0.0000 -33.7157 -2.8453 2.5232 -45.2342 -17.0251 -17.1550 -10.0254 5.0032 52.4024 14.1331 -4.3567 -1.1601 -0.0000 0.0000 -0.0000 35.2612 5.2655 3.6208 39.2984 6.6914 -16.1361 10.7511 -0.8534 26.1189 -10.4131 1.9236 -0.6398 0.0000 0.0000 0.0000 -0.2778 1.2844 0.7662 -0.0488 2.8998 5.4687 4.2050 -0.1922 -5.1194 0.0000 0.0000 -0.0000
1.8809 40.2946 -73.7628 -1.7995 -4.1073 -1.0960 0.0000 0.0000 0.0000 3.9899 -0.1380 0.4823 -0.8636 -3.1535 3.5420 -3.6465 0.2490 -3.1068 0.0000 -0.0000 -0.0000 0.0000 0.0000 0.0000 -0.2519 -0.4528 0.6838 3.9344 -1.2725 1.9977 -0.0000 0.0000 -0.0000 2.2769 0.3303 -6.6760 -0.0000 0.0000 -0.0000 -33.6071 -2.8172 2.5051 -45.3132 -17.0001 -17.1430 -10.0094 5.0004 52.4945 14.1608 -4.3653 -1.1592 -0.0000 0.0000 -0.0000 35.3477 5.2761 3.6329 39.2304 6.6838 -16.1040 10.7685 -0.8346 26.0741 -10.2847 1.9085 -0.6305 0.0000 0.0000 0.0000 -0.2947 1.2779 0.7874 -0.0573 2.8863 5.4374 4.2050 -0.1922 -5.1002 0.0000 0.0000 -0.0000
1.8809 40.2946 -73.7577 -1.7745 -4.0700 -1.0960 0.0000 0.0000 0.0000 3.9628 -0.1492 0.4710 -0.8721 -3.1698 3.5801 -3.5580 0.2434 -3.1408 0.0000 -0.0000 -0.0000 0.0000 0.0000 0.0000 -0.2333 -0.4578 0.6551 3.8631 -1.2636 1.9737 -0.0000 0.0000 -0.0000 2.3848 0.3922 -6.4681 -0.0000 0.0000 -0.0000 -33.5123 -2.7971 2.4911 -45.3627 -16.9706 -17.1669 -9.9821 4.9981 52.5775 14.2095 -4.3249 -1.1558 -0.0000 0.0000 -0.0000 35.4193 5.2821 3.6418 39.1885 6.6591 -16.1012 10.7692 -0.8092 26.0704 -10.0047 1.9163 -0.6134 0.0000 0.0000 0.0000 -0.3175 1.2681 0.8012 -0.0684 2.8590 5.4173 4.1906 -0.1912 -5.0982 0.0000 0.0000 -0.0000
1.8809 40.2946 -73.7500 -1.7687 -4.0177 -1.1025 0.0000 0.0000 0.0000 3.9600 -0.1441 0.4699 -0.8902 -3.2053 3.6049 -3.4468 0.2363 -3.1587 0.0000 -0.0000 -0.0000 0.0000 0.0000 0.0000 -0.2117 -0.4501 0.6151 3.8574 -1.2541 1.9364 -0.0000 0.0000 -0.0000 2.4335 0.3992 -6.2109 -0.0000 0.0000 -0.0000 -33.5610 -2.8102 2.4994 -45.2681 -16.9301 -17.2023 -9.9860 4.9991 52.5456 14.2161 -4.1993 -1.1425 -0.0000 0.0000 -0.0000 35.3616 5.2690 3.6312 39.2663 6.6465 -16.1743 10.7308 -0.8364 26.2047 -9.7716 2.0003 -0.6051 0.0000 0.0000 0.0000 -0.3266 1.2570 0.8049 -0.0654 2.8157 5.4408 4.1584 -0.1892 -5.1258 0.0000 0.0000 -0.0000
1.8827 40.2946 -73.7390 -1.7780 -3.9501 -1.1295 0.0000 0.0000 0.0000 3.9744 -0.1339 0.5193 -0.9171 -3.2778 3.5981 -3.4128 0.2342 -3.1728 0.0000 -0.0000 -0.0000 0.0000 0.0000 0.0000 -0.1847 -0.4425 0.5673 3.8929 -1.2544 1.9238 -0.0000 0.0000 -0.0000 2.4403 0.3419 -5.9601 -0.0000 0.0000 -0.0000 -33.6824 -2.8301 2.5150 -45.1042 -16.8662 -17.1889 -10.0381 5.0033 52.3941 14.0520 -3.9756 -1.1033 -0.0000 0.0000 -0.0000 35.2313 5.2468 3.6104 39.4079 6.6523 -16.2318 10.7016 -0.8891 26.3403 -9.7146 2.2268 -0.6186 0.0000 0.0000 0.0000 -0.3320 1.2378 0.8340 -0.0436 2.7640 5.4693 4.1300 -0.1873 -5.1577 0.0000 0.0000 -0.0000
1.8865 40.2946 -73.7263 -1.7750 -3.8899 -1.1647 0.0000 0.0000 0.0000 3.9656 -0.1485 0.5884 -0.9281 -3.3309 3.5888 -3.4457 0.2364 -3.2001 0.0000 -0.0000 -0.0000 0.0000 0.0000 0.0000 -0.1752 -0.4270 0.5110 3.9369 -1.2485 1.9394 -0.0000 0.0000 -0.0000 2.4610 0.2239 -5.7408 -0.0000 0.0000 -0.0000 -33.7689 -2.8406 2.5247 -44.9945 -16.7829 -17.1084 -10.1249 5.0103 52.1384 13.7654 -3.6789 -1.0468 -0.0000 0.0000 -0.0000 35.1323 5.2300 3.5946 39.5192 6.6292 -16.1590 10.7354 -0.8466 26.2375 -9.7370 2.4898 -0.6401 0.0000 0.0000 0.0000 -0.3560 1.2081 0.8973 -0.0179 2.7289 5.4509 4.1109 -0.1861 -5.1711 0.0000 0.0000 -0.0000
1.8917 40.2946 -73.7163 -1.7545 -3.8573 -1.1809 0.0000 0.0000 0.0000 3.9259 -0.1857 0.6119 -0.9137 -3.3241 3.6142 -3.4568 0.2372 -3.2369 0.0000 -0.0000 -0.0000 0.0000 0.0000 0.0000 -0.1882 -0.3905 0.4548 3.9871 -1.2206 1.9469 -0.0000 0.0000 -0.0000 2.4929 0.0845 -5.5524 -0.0000 0.0000 -0.0000 -33.8161 -2.8590 2.5350 -44.9505 -16.6918 -16.9970 -10.2184 5.0179 51.8596 13.5725 -3.4084 -1.0018 -0.0000 0.0000 -0.0000 35.0865 5.2208 3.5868 39.5767 6.5564 -15.9742 10.8177 -0.6668 25.8863 -9.7191 2.4903 -0.6390 0.0000 0.0000 0.0000 -0.3880 1.1902 0.9538 -0.0184 2.7094 5.3960 4.1092 -0.1860 -5.1716 0.0000 0.0000 -0.0000
1.8982 40.2946 -73.7122 -1.7410 -3.8307 -1.1784 0.0000 0.0000 0.0000 3.8934 -0.2117 0.5910 -0.9005 -3.3127 3.6607 -3.4245 0.2352 -3.2631 0.0000 -0.0000 -0.0000 0.0000 0.0000 0.0000 -0.1804 -0.3529 0.4186 4.0138 -1.1871 1.9339 -0.0000 0.0000 -0.0000 2.5180 -0.0020 -5.4290 -0.0000 0.0000 -0.0000 -33.8386 -2.8917 2.5495 -44.9284 -16.6102 -16.9107 -10.2801 5.0208 51.7437 13.5129 -3.2817 -0.9835 -0.0000 0.0000 -0.0000 35.0840 5.2209 3.5866 39.5857 6.4937 -15.7939 10.8944 -0.4768 25.5397 -9.7481 2.1117 -0.6120 0.0000 0.0000 0.0000 -0.3918 1.2128 0.9741 -0.0674 2.6598 5.3552 4.1396 -0.1880 -5.1755 0.0000 0.0000 -0.0000
1.9051 40.2946 -73.7126 -1.7458 -3.7738 -1.1824 0.0000 0.0000 0.0000 3.8895 -0.2105 0.5841 -0.9143 -3.3642 3.6839 -3.3944 0.2333 -3.2674 0.0000 -0.0000 -0.0000 0.0000 0.0000 0.0000 -0.1250 -0.3432 0.4180 3.9758 -1.1718 1.9263 -0.0000 0.0000 -0.0000 2.5731 -0.0076 -5.4397 -0.0000 0.0000 -0.0000 -33.7979 -2.9172 2.5576 -44.9396 -16.5648 -16.8825 -10.2796 5.0160 51.8968 13.4147 -3.3092 -0.9790 -0.0000 0.0000 -0.0000 35.1469 5.2356 3.5982 39.5280 6.5018 -15.6940 10.9384 -0.4193 25.4018 -9.9559 1.6668 -0.5908 0.0000 0.0000 0.0000 -0.3673 1.2593 0.9804 -0.1394 2.5616 5.3391 4.1818 -0.1907 -5.1746 0.0000 0.0000 -0.0000
1.9104 40.2946 -73.7150 -1.7537 -3.6953 -1.1933 0.0000 0.0000 0.0000 3.8958 -0.1981 0.6052 -0.9440 -3.4535 3.6663 -3.3815 0.2324 -3.2545 0.0000 -0.0000 -0.0000 0.0000 0.0000 0.0000 -0.0721 -0.3462 0.4416 3.9252 -1.1678 1.9438 -0.0000 0.0000 -0.0000 2.6761 0.0190 -5.6042 -0.0000 0.0000 -0.0000 -33.7181 -2.9227 2.5596 -44.9892 -16.5787 -16.8929 -10.2405 5.0084 52.1553 13.2491 -3.3813 -0.9742 -0.0000 0.0000 -0.0000 35.2455 5.2561 3.6155 39.4294 6.5686 -15.6855 10.9475 -0.4903 25.4602 -10.2512 1.5351 -0.5983 0.0000 0.0000 0.0000 -0.3595 1.2673 0.9910 -0.1649 2.4780 5.3201 4.1833 -0.1908 -5.1610 0.0000 0.0000 -0.0000
1.9138 40.2946 -73.7181 -1.7559 -3.6358 -1.1795 0.0000 0.0000 0.0000 3.9023 -0.1879 0.6098 -0.9633 -3.5176 3.6219 -3.3771 0.2321 -3.2316 0.0000 -0.0000 -0.0000 0.0000 0.0000 0.0000 -0.0849 -0.3249 0.4518 3.9767 -1.1575 1.9901 -0.0000 0.0000 -0.0000 2.7460 0.0441 -5.8581 -0.0000 0.0000 -0.0000 -33.7224 -2.9148 2.5589 -45.0065 -16.6488 -16.8899 -10.2230 5.0046 52.2750 13.1837 -3.4041 -0.9716 -0.0000 0.0000 -0.0000 35.2632 5.2586 3.6181 39.3858 6.6581 -15.7527 10.9217 -0.5901 25.6009 -10.4038 1.7062 -0.6214 0.0000 0.0000 0.0000 -0.3903 1.2104 0.9791 -0.1118 2.4721 5.2911 4.1349 -0.1877 -5.1334 0.0000 0.0000 -0.0000
1.9164 40.2946 -73.7217 -1.7610 -3.6024 -1.1315 0.0000 0.0000 0.0000 3.9081 -0.1762 0.5809 -0.9689 -3.5565 3.5649 -3.3951 0.2331 -3.2032 0.0000 -0.0000 -0.0000 0.0000 0.0000 0.0000 -0.1456 -0.2849 0.4308 4.1310 -1.1479 2.0622 -0.0000 0.0000 -0.0000 2.7058 0.0826 -6.1288 -0.0000 0.0000 -0.0000 -33.8498 -2.8995 2.5569 -44.9461 -16.7339 -16.8577 -10.2420 5.0029 52.2666 13.2464 -3.4050 -0.9765 -0.0000 0.0000 -0.0000 35.1447 5.2349 3.5978 39.4553 6.7645 -15.8391 10.8811 -0.6598 25.7276 -10.3278 1.9264 -0.6346 0.0000 0.0000 0.0000 -0.4236 1.1447 0.9297 -0.0439 2.5034 5.2660 4.0985 -0.1853 -5.1056 0.0000 0.0000 -0.0000
